PathFileType	4	(X/Y/Z)	C:/Users/CLatella/Desktop/xsens/7Novembre/Claudia/Claudia mvnx and c3d/Claudia-022.trc	
DataRate	CameraRate	NumFrames	NumMarkers	Units	OrigDataRate	OrigDataStartFrame	OrigNumFrames	
240.00	240.00	4	64	mm	240.00	974	1113	
Frame#	Time	pHipOrigin			pRightASI			pLeftASI			pRightCSI			pLeftCSI			pRightIschialTub			pLeftIschialTub			pSacrum			pL5SpinalProcess			pL3SpinalProcess			pT12SpinalProcess			pPX			pIJ			pT4SpinalProcess			pT8SpinalProcess			pC7SpinalProcess			pTopOfHead			pRightAuricularis			pLeftAuricularis			pBackOfHead			pRightAcromion			pLeftAcromion			pRightArmLatEpicondyle			pRightArmMedEpicondyle			pLeftArmLatEpicondyle			pLeftArmMedEpicondyle			pRightUlnarStyloid			pRightRadialStyloid			pRightOlecranon			pLeftUlnarStyloid			pLeftRadialStyloid			pLeftOlecranon			pRightTopOfHand			pRightPinky			pRightBallHand			pLeftTopOfHand			pLeftPinky			pLeftBallHand			pRightGreaterTrochanter			pRightKneeLatEpicondyle			pRightKneeMedEpicondyle			pRightPatella			pLeftGreaterTrochanter			pLeftKneeLatEpicondyle			pLeftKneeMedEpicondyle			pLeftPatella			pRightLatMalleolus			pRightMedMalleolus			pRightTibialTub			pLeftLatMalleolus			pLeftMedMalleolus			pLeftTibialTub			pRightHeelFoot			pRightFirstMetatarsal			pRightFifthMetatarsal			pRightPivotFoot			pRightHeelCenter			pRightToe			pLeftHeelFoot			pLeftFirstMetatarsal			pLeftFifthMetatarsal			pLeftPivotFoot			pLeftHeelCenter			pLeftToe			
		X1	Y1	Z1	X2	Y2	Z2	X3	Y3	Z3	X4	Y4	Z4	X5	Y5	Z5	X6	Y6	Z6	X7	Y7	Z7	X8	Y8	Z8	X9	Y9	Z9	X10	Y10	Z10	X11	Y11	Z11	X12	Y12	Z12	X13	Y13	Z13	X14	Y14	Z14	X15	Y15	Z15	X16	Y16	Z16	X17	Y17	Z17	X18	Y18	Z18	X19	Y19	Z19	X20	Y20	Z20	X21	Y21	Z21	X22	Y22	Z22	X23	Y23	Z23	X24	Y24	Z24	X25	Y25	Z25	X26	Y26	Z26	X27	Y27	Z27	X28	Y28	Z28	X29	Y29	Z29	X30	Y30	Z30	X31	Y31	Z31	X32	Y32	Z32	X33	Y33	Z33	X34	Y34	Z34	X35	Y35	Z35	X36	Y36	Z36	X37	Y37	Z37	X38	Y38	Z38	X39	Y39	Z39	X40	Y40	Z40	X41	Y41	Z41	X42	Y42	Z42	X43	Y43	Z43	X44	Y44	Z44	X45	Y45	Z45	X46	Y46	Z46	X47	Y47	Z47	X48	Y48	Z48	X49	Y49	Z49	X50	Y50	Z50	X51	Y51	Z51	X52	Y52	Z52	X53	Y53	Z53	X54	Y54	Z54	X55	Y55	Z55	X56	Y56	Z56	X57	Y57	Z57	X58	Y58	Z58	X59	Y59	Z59	X60	Y60	Z60	X61	Y61	Z61	X62	Y62	Z62	X63	Y63	Z63	X64	Y64	Z64	

974	4.054	67.62813	224.21285	934.28181	149.24646	110.91858	1003.38815	125.48951	349.80795	1005.92222	117.09539	127.02051	1078.35453	97.35072	326.15658	1080.46626	16.41869	169.30789	889.82991	6.49357	268.87592	890.88577	1.05586	217.29694	962.42060	40.86196	221.25643	1030.68225	41.97062	222.47067	1142.39272	42.12900	224.26564	1240.79930	191.95619	232.65977	1338.20282	185.19865	235.72178	1458.62418	40.07006	229.06983	1427.58176	41.33710	226.69413	1339.20589	39.64772	231.60390	1482.48672	171.63079	235.66898	1725.75792	119.78784	164.87326	1634.53122	128.02358	305.40884	1629.51586	69.58148	238.67820	1641.81669	80.50968	35.05471	1446.48173	65.46361	427.25562	1426.73706	196.12685	66.14992	1122.48967	187.73273	130.50487	1127.08269	161.70567	380.58640	1096.72658	167.56571	316.97056	1108.86902	259.42594	70.00382	889.88270	297.75382	100.30714	900.75810	173.05621	80.72085	1119.21649	206.36874	343.68393	860.52966	254.99131	343.31438	872.09138	140.06044	351.39174	1096.56820	349.01605	17.05221	740.68903	286.82562	22.64830	802.29873	271.46279	67.62813	858.36514	306.62308	381.74785	704.20891	280.22647	403.23470	785.03534	239.20613	372.24507	837.56461	89.43173	72.32673	909.94413	52.63485	52.42368	521.91388	37.37761	126.01744	513.67814	85.94738	100.09597	516.10662	47.72508	375.30708	908.36033	-24.97120	360.10263	525.23985	-16.41869	285.13624	520.59405	21.27567	325.15351	517.63763	14.83490	38.59185	114.03338	18.26646	98.51217	110.12668	106.27277	87.63676	482.10778	-60.97618	373.56490	119.57667	-51.79016	314.27810	115.24762	40.07006	331.91104	486.01448	-29.88097	64.88288	9.34440	137.10402	84.94431	-0.21117	129.07945	7.76060	6.17681	155.15931	45.03263	2.00614	11.66730	59.97311	2.27011	221.52040	38.01113	0.47514	-102.68283	338.19344	14.67652	65.19964	347.80180	5.12094	43.71280	422.45143	10.71703	75.91667	390.30036	6.91591	-62.61277	350.28309	7.49664	140.00765	408.88357	5.22653 
975	4.058	67.73372	224.21285	934.28181	149.29926	110.97137	1003.44094	125.59510	349.86074	1006.02781	117.14818	127.02051	1078.40733	97.35072	326.15658	1080.57185	16.57707	169.36068	889.77711	6.70474	268.92872	890.83298	1.16145	217.29694	962.42060	40.91475	221.30922	1030.68225	41.91783	222.47067	1142.39272	41.91783	224.26564	1240.74651	191.63943	232.65977	1338.36120	184.77631	235.72178	1458.78256	39.70051	229.06983	1427.58176	41.07313	226.69413	1339.20589	39.17258	231.60390	1482.48672	171.05007	235.66898	1725.81072	119.25991	164.87326	1634.58401	127.44286	305.35605	1629.56866	69.00075	238.62540	1641.86948	80.08733	35.05471	1446.42894	65.04126	427.25562	1426.78986	195.96847	66.14992	1122.59526	187.57435	130.45207	1127.18827	161.54729	380.53361	1096.83216	167.46013	316.97056	1109.02740	259.47873	70.05662	890.04108	297.75382	100.30714	900.91648	172.89783	80.72085	1119.32208	206.31595	343.63114	860.68804	254.99131	343.31438	872.24976	139.95486	351.33895	1096.67378	349.01605	16.99942	740.84741	286.82562	22.64830	802.40432	271.46279	67.62813	858.52352	306.57029	381.85344	704.36729	280.12088	403.28749	785.19372	239.15334	372.24507	837.72299	89.59011	72.32673	909.94413	52.74044	52.52926	521.91388	37.48319	126.12303	513.67814	86.05297	100.20155	516.10662	47.93625	375.35987	908.36033	-24.70723	360.10263	525.23985	-16.26032	285.13624	520.64684	21.48684	325.15351	517.63763	14.78210	38.64464	114.08617	18.21366	98.51217	110.12668	106.37836	87.74235	482.05499	-60.92339	373.51211	119.57667	-51.73737	314.27810	115.24762	40.28124	331.85825	485.96169	-29.93376	64.88288	9.39720	137.05123	84.94431	-0.15838	129.02666	7.76060	6.17681	155.10651	45.03263	2.00614	11.61451	59.97311	2.32290	221.41481	37.95833	0.47514	-102.63004	338.24623	14.67652	65.25243	347.80180	5.12094	43.76559	422.39864	10.71703	76.02225	390.24756	6.91591	-62.55998	350.33588	7.54943	140.11323	408.77799	5.22653 
976	4.063	67.89209	224.26564	934.33460	149.35205	110.97137	1003.54653	125.64789	349.86074	1006.13339	117.14818	126.96772	1078.46012	97.35072	326.15658	1080.62464	16.73545	169.36068	889.77711	6.86312	268.92872	890.83298	1.26704	217.34973	962.36781	40.96755	221.30922	1030.68225	41.81224	222.47067	1142.39272	41.75945	224.26564	1240.74651	191.37546	232.65977	1338.51958	184.35396	235.72178	1458.94093	39.33096	229.06983	1427.52896	40.80917	226.64134	1339.20589	38.75023	231.55111	1482.53951	170.52214	235.66898	1725.86351	118.78477	164.82047	1634.63681	126.91493	305.35605	1629.62145	68.47282	238.57261	1641.92227	79.66499	35.00191	1446.42894	64.67171	427.20282	1426.78986	195.81009	66.14992	1122.70085	187.46876	130.45207	1127.29386	161.44170	380.48081	1096.93775	167.35454	316.91776	1109.13299	259.47873	70.05662	890.14667	297.80662	100.30714	901.07486	172.79224	80.72085	1119.37487	206.31595	343.63114	860.79363	254.99131	343.36717	872.40814	139.84927	351.28616	1096.77937	349.06884	16.99942	741.00579	286.82562	22.64830	802.56270	271.46279	67.68092	858.62911	306.51750	381.95903	704.52567	280.06809	403.34028	785.29931	239.10054	372.24507	837.88137	89.74849	72.37952	909.94413	52.89882	52.58206	521.91388	37.58878	126.17582	513.73093	86.15855	100.30714	516.15942	48.09463	375.35987	908.41312	-24.49606	360.15542	525.23985	-16.04914	285.13624	520.64684	21.69802	325.15351	517.69042	14.78210	38.64464	114.13897	18.16087	98.56496	110.17947	106.48395	87.79514	482.05499	-60.87060	373.51211	119.62946	-51.68457	314.22531	115.30042	40.43961	331.85825	485.96169	-29.98656	64.88288	9.39720	136.99843	84.94431	-0.15838	128.97386	7.76060	6.22960	155.05372	45.03263	2.00614	11.56172	59.97311	2.32290	221.36202	37.95833	0.47514	-102.63004	338.24623	14.72931	65.30523	347.74901	5.12094	43.81838	422.39864	10.76982	76.07505	390.24756	6.96871	-62.50719	350.33588	7.54943	140.16603	408.77799	5.27932 
977	4.067	67.99768	224.26564	934.33460	149.45764	110.97137	1003.59932	125.70068	349.86074	1006.23898	117.14818	126.96772	1078.51291	97.35072	326.15658	1080.67744	16.89383	169.36068	889.72432	6.96871	268.98151	890.83298	1.37262	217.34973	962.31501	41.02034	221.25643	1030.68225	41.75945	222.47067	1142.39272	41.60107	224.21285	1240.74651	191.11150	232.60698	1338.67795	183.98441	235.66898	1459.09931	38.96140	229.01704	1427.52896	40.54520	226.64134	1339.20589	38.32789	231.55111	1482.53951	170.04700	235.66898	1725.96910	118.30963	164.82047	1634.68960	126.38699	305.35605	1629.67424	67.99768	238.57261	1641.97507	79.29543	35.00191	1446.42894	64.30216	427.20282	1426.84265	195.65171	66.09713	1122.75364	187.31038	130.45207	1127.34665	161.33611	380.42802	1097.04334	167.24896	316.86497	1109.29137	259.47873	70.05662	890.30505	297.80662	100.25435	901.23324	172.63386	80.72085	1119.42767	206.31595	343.57835	860.95201	254.93851	343.36717	872.56652	139.74368	351.23336	1096.88496	349.06884	16.94663	741.16417	286.87842	22.64830	802.72108	271.46279	67.68092	858.78749	306.51750	382.01182	704.68405	280.01530	403.39308	785.51048	239.10054	372.24507	838.03975	89.85408	72.37952	909.94413	53.00440	52.68764	521.91388	37.64157	126.22861	513.73093	86.26414	100.41273	516.15942	48.25301	375.35987	908.41312	-24.28489	360.15542	525.23985	-15.89076	285.13624	520.64684	21.90919	325.10072	517.69042	14.72931	38.64464	114.13897	18.10808	98.56496	110.17947	106.58953	87.84794	482.05499	-60.81780	373.45932	119.68225	-51.68457	314.22531	115.35321	40.65079	331.85825	485.96169	-30.03935	64.88288	9.44999	136.94564	84.94431	-0.15838	128.92107	7.76060	6.22960	155.00093	45.03263	2.05894	11.50892	59.97311	2.37570	221.30922	37.95833	0.47514	-102.57725	338.19344	14.78210	65.30523	347.80180	5.17374	43.81838	422.39864	10.82261	76.07505	390.24756	6.96871	-62.50719	350.28309	7.60223	140.16603	408.83078	5.27932 
